<svg xmlns="http://www.w3.org/2000/svg" viewBox="0 0 841.9 595.3">
  <g fill="#61DAFB">
    <path d="M666.3 296.5c0-29.7-31.4-57.9-81-75.7 11.5-40.6 7.5-73.4-12.8-86.2-4.1-2.8-9-4.2-14.5-4.2-19.4 0-44.7 13.7-69.3 37.9-14.6-2.9-29.5-4.3-44.5-4.3s-29.9 1.4-44.5 4.3c-24.6-24.2-49.9-37.9-69.3-37.9-5.5 0-10.4 1.4-14.5 4.2-20.3 12.8-24.3 45.6-12.8 86.2-49.6 17.8-81 46-81 75.7 0 29.7 31.4 57.9 81 75.7-11.5 40.6-7.5 73.4 12.8 86.2 4.1 2.8 9 4.2 14.5 4.2 19.4 0 44.7-13.7 69.3-37.9 14.6 2.9 29.5 4.3 44.5 4.3s29.9-1.4 44.5-4.3c24.6 24.2 49.9 37.9 69.3 37.9 5.5 0 10.4-1.4 14.5-4.2 20.3-12.8 24.3-45.6 12.8-86.2 49.6-17.8 81-46 81-75.7z"/>
    <circle cx="420.9" cy="296.5" r="45.7"/>
    <path d="M520.5 78.1c-47.7-19.6-105.9-30.4-170.6-30.4-64.8 0-122.9 10.7-170.7 30.3-47.5 19.5-78.3 46.4-78.3 75.9 0 29.5 30.8 56.4 78.3 75.9 47.7 19.6 105.8 30.4 170.6 30.4 64.8 0 122.9-10.7 170.7-30.3 47.5-19.5 78.3-46.4 78.3-75.9 0-29.5-30.8-56.4-78.3-75.9zM256.2 404.8c47.7 19.6 105.8 30.4 170.6 30.4 64.8 0 122.9-10.7 170.7-30.3 47.5-19.5 78.3-46.4 78.3-75.9 0-29.5-30.8-56.4-78.3-75.9-47.7-19.6-105.9-30.4-170.6-30.4-64.8 0-122.9 10.7-170.7 30.3-47.5 19.5-78.3 46.4-78.3 75.9 0 29.6 30.9 56.5 78.3 75.9z"/>
  </g>
</svg>
